<svg width="256.000977" height="52.281250" viewBox="0 0 256.001 52.2812" fill="none" xmlns="http://www.w3.org/2000/svg" xmlns:xlink="http://www.w3.org/1999/xlink">
	<desc>
			Created with Pixso.
	</desc>
	<defs/>
	<path id="Vector" d="M43.9004 21.3887L56.8291 21.3887L40.207 52.2812L40.207 30.8945L27.2783 30.8945L43.9004 0L43.9004 21.3887Z" fill="#F6B419" fill-opacity="1.000000" fill-rule="nonzero"/>
	<path id="Vector" d="M102.06 42.5078L104.511 42.5078C105.829 42.5078 106.568 43.1816 106.568 44.3984C106.568 45.3184 106.147 45.75 105.689 45.918C106.216 46.1289 106.765 46.5918 106.765 47.6875C106.765 49.1445 105.879 49.873 104.454 49.873L102.06 49.873L102.06 42.5078ZM104.158 45.3828C104.783 45.3828 104.932 45.1289 104.932 44.5605C104.932 43.9824 104.696 43.7461 104.178 43.7461L103.708 43.7461L103.708 45.3828L104.158 45.3828ZM103.708 48.6523L104.242 48.6523C104.765 48.6523 105.037 48.4023 105.037 47.6328C105.037 46.8906 104.817 46.5723 104.144 46.5723L103.708 46.5723L103.708 48.6523Z" fill="#F6B419" fill-opacity="1.000000" fill-rule="nonzero"/>
	<path id="Vector" d="M109.376 48.2969L109.126 49.873L107.433 49.873L108.888 42.5078L111.267 42.5078L112.736 49.873L110.979 49.873L110.721 48.2969L109.376 48.2969ZM110.494 46.877C110.327 45.8008 110.164 44.6035 110.073 43.9238L110.017 43.9238C109.944 44.6289 109.767 45.8008 109.592 46.877L110.494 46.877Z" fill="#F6B419" fill-opacity="1.000000" fill-rule="nonzero"/>
	<path id="Vector" d="M114.653 43.8945L113.202 43.8945L113.202 42.5078L117.79 42.5078L117.79 43.8945L116.347 43.8945L116.347 49.877L114.657 49.877L114.657 43.8945L114.653 43.8945Z" fill="#F6B419" fill-opacity="1.000000" fill-rule="nonzero"/>
	<path id="Vector" d="M119.745 43.8945L118.294 43.8945L118.294 42.5078L122.882 42.5078L122.882 43.8945L121.438 43.8945L121.438 49.877L119.749 49.877L119.749 43.8945L119.745 43.8945Z" fill="#F6B419" fill-opacity="1.000000" fill-rule="nonzero"/>
	<path id="Vector" d="M127.738 46.75L125.507 46.75L125.507 48.5059L128.034 48.5059L127.837 49.873L123.852 49.873L123.852 42.5078L127.845 42.5078L127.845 43.8945L125.511 43.8945L125.511 45.375L127.742 45.375L127.742 46.75L127.738 46.75Z" fill="#F6B419" fill-opacity="1.000000" fill-rule="nonzero"/>
	<path id="Vector" d="M130.755 46.8613L130.755 49.877L129.084 49.877L129.084 42.5117L131.573 42.5117C132.994 42.5117 133.718 43.2168 133.718 44.5508C133.718 45.5684 133.218 46.0469 132.771 46.2246C133.346 46.4824 133.619 46.9551 133.619 48.0156L133.619 48.2734C133.619 49.0918 133.649 49.5586 133.698 49.8809L132.058 49.8809C131.971 49.5957 131.944 48.9414 131.944 48.2207L131.944 47.9668C131.944 47.0957 131.771 46.8652 131.122 46.8652L130.755 46.8652L130.755 46.8613ZM130.759 45.5918L131.152 45.5918C131.785 45.5918 132.027 45.3652 132.027 44.6445C132.027 44.0391 131.815 43.7734 131.259 43.7734L130.759 43.7734L130.759 45.5918Z" fill="#F6B419" fill-opacity="1.000000" fill-rule="nonzero"/>
	<path id="Vector" d="M136.601 42.5078L136.601 49.873L134.907 49.873L134.907 42.5078L136.601 42.5078Z" fill="#F6B419" fill-opacity="1.000000" fill-rule="nonzero"/>
	<path id="Vector" d="M141.949 46.75L139.718 46.75L139.718 48.5059L142.241 48.5059L142.044 49.873L138.059 49.873L138.059 42.5078L142.052 42.5078L142.052 43.8945L139.718 43.8945L139.718 45.375L141.949 45.375L141.949 46.75Z" fill="#F6B419" fill-opacity="1.000000" fill-rule="nonzero"/>
	<path id="Vector" d="M144.632 47.7441C144.673 48.3496 144.848 48.7656 145.352 48.7656C145.844 48.7656 145.999 48.4375 145.999 48.0156C145.999 47.5039 145.741 47.2051 144.878 46.7617C143.598 46.1035 143.116 45.5469 143.116 44.4629C143.116 43.2012 143.885 42.375 145.344 42.375C147.06 42.375 147.553 43.4473 147.563 44.5801L145.935 44.5801C145.908 44.0684 145.813 43.625 145.332 43.625C144.957 43.625 144.787 43.8672 144.787 44.2812C144.787 44.7012 144.95 44.9199 145.753 45.3184C147.117 46.0078 147.696 46.5879 147.696 47.8262C147.696 49.043 146.984 50.0117 145.332 50.0117C143.54 50.0117 142.995 48.9941 142.957 47.7402L144.632 47.7402L144.632 47.7441Z" fill="#F6B419" fill-opacity="1.000000" fill-rule="nonzero"/>
	<path id="Vector" d="M0 10.1543L26.6719 10.1543L26.6719 16.2168L9.09277 16.2168L9.09277 18.1855L24.0645 18.1855L24.0645 22.7324L9.09277 22.7324L9.09277 24.7031L26.6719 24.7031L26.6719 30.7637L0 30.7637L0 10.1543Z" fill="#F6B419" fill-opacity="1.000000" fill-rule="nonzero"/>
	<path id="Vector" d="M57.4873 10.1543L84.1592 10.1543L84.1592 16.2168L66.5801 16.2168L66.5801 18.1855L81.5518 18.1855L81.5518 22.7324L66.5801 22.7324L66.5801 24.7031L84.1592 24.7031L84.1592 30.7637L57.4873 30.7637L57.4873 10.1543Z" fill="#F6B419" fill-opacity="1.000000" fill-rule="nonzero"/>
	<path id="Vector" d="M118.074 19.0625L118.074 19.2148L108.224 19.2148L108.133 18.791C107.77 17.0938 106.163 15.9121 102.132 15.9121L100.98 15.9121C96.7373 15.9121 94.3428 17.1543 94.3428 20.3359L94.3428 20.5781C94.3428 23.7617 96.7373 25.0039 100.98 25.0039L102.132 25.0039C106.163 25.0039 107.77 23.8223 108.133 22.125L108.224 21.6992L118.074 21.6992L118.074 21.8516C118.074 28.0645 112.406 31.0664 102.041 31.0664L101.071 31.0664C90.4023 31.0664 84.9473 28.0957 84.9473 20.6992L84.9473 20.2148C84.9473 12.8203 90.4023 9.84961 101.071 9.84961L102.041 9.84961C112.406 9.84961 118.074 12.8496 118.074 19.0625Z" fill="#F6B419" fill-opacity="1.000000" fill-rule="nonzero"/>
	<path id="Vector" d="M149.322 10.1543L149.322 16.8223L138.532 16.8223L138.532 30.7637L129.44 30.7637L129.44 16.8223L118.65 16.8223L118.65 10.1543L149.322 10.1543Z" fill="#F6B419" fill-opacity="1.000000" fill-rule="nonzero"/>
	<path id="Vector" d="M160.919 30.7637L151.826 30.7637L151.826 10.1543L171.224 10.1543C179.104 10.1543 181.649 12.3965 181.649 16.5488L181.649 16.9121C181.649 19.5508 180.347 21.3691 177.71 22.127C180.226 22.6719 180.922 24.0664 181.165 26.248L181.68 30.7637L172.072 30.7637L171.739 27.4902C171.587 25.9453 170.951 25.1562 168.829 25.1562L160.919 25.1562L160.919 30.7637ZM172.405 17.7617C172.405 16.6406 171.526 16.2168 169.254 16.2168L160.919 16.2168L160.919 19.3984L169.254 19.3984C171.526 19.3984 172.405 18.9746 172.405 17.8535L172.405 17.7617Z" fill="#F6B419" fill-opacity="1.000000" fill-rule="nonzero"/>
	<path id="Vector" d="M205.438 27.3398L194.072 27.3398L192.254 30.7637L182.979 30.7637L194.77 10.1543L205.226 10.1543L217.016 30.7637L207.257 30.7637L205.438 27.3398ZM196.982 21.8828L202.559 21.8828L199.771 16.6094L196.982 21.8828Z" fill="#F6B419" fill-opacity="1.000000" fill-rule="nonzero"/>
	<path id="Vector" d="M234.118 17.1562L229.936 30.7637L219.085 30.7637L212.205 10.1543L221.389 10.1543L225.207 23.6406L229.359 10.1543L239.513 10.1543L243.665 23.6406L247.484 10.1543L256.001 10.1543L249.121 30.7637L238.271 30.7637L234.118 17.1562Z" fill="#F6B419" fill-opacity="1.000000" fill-rule="nonzero"/>
</svg>
