<svg width="137.102539" height="28.000000" viewBox="0 0 137.103 28" fill="none" xmlns="http://www.w3.org/2000/svg" xmlns:xlink="http://www.w3.org/1999/xlink">
	<desc>
			Created with Pixso.
	</desc>
	<defs/>
	<path id="Vector" d="M23.5107 11.4541L30.4346 11.4541L21.5322 28L21.5322 16.5459L14.6084 16.5459L23.5107 0L23.5107 11.4541Z" fill="#F6B419" fill-opacity="1.000000" fill-rule="nonzero"/>
	<path id="Vector" d="M54.6592 22.7656L55.9717 22.7656C56.6777 22.7656 57.0732 23.127 57.0732 23.7783C57.0732 24.2715 56.8486 24.502 56.6025 24.5918C56.8848 24.7051 57.1787 24.9531 57.1787 25.5391C57.1787 26.3203 56.7041 26.71 55.9414 26.71L54.6592 26.71L54.6592 22.7656ZM55.7832 24.3057C56.1182 24.3057 56.1973 24.1699 56.1973 23.8652C56.1973 23.5547 56.0713 23.4287 55.793 23.4287L55.542 23.4287L55.542 24.3057L55.7832 24.3057ZM55.542 26.0566L55.8281 26.0566C56.1074 26.0566 56.2539 25.9229 56.2539 25.5107C56.2539 25.1133 56.1367 24.9424 55.7754 24.9424L55.542 24.9424L55.542 26.0566Z" fill="#F6B419" fill-opacity="1.000000" fill-rule="nonzero"/>
	<path id="Vector" d="M58.5771 25.8662L58.4434 26.71L57.5361 26.71L58.3154 22.7656L59.5898 22.7656L60.377 26.71L59.4355 26.71L59.2969 25.8662L58.5771 25.8662ZM59.1758 25.1055C59.0859 24.5293 58.999 23.8877 58.9502 23.5244L58.9199 23.5244C58.8809 23.9014 58.7861 24.5293 58.6924 25.1055L59.1758 25.1055Z" fill="#F6B419" fill-opacity="1.000000" fill-rule="nonzero"/>
	<path id="Vector" d="M61.4033 23.5078L60.626 23.5078L60.626 22.7656L63.083 22.7656L63.083 23.5078L62.3096 23.5078L62.3096 26.7119L61.4053 26.7119L61.4053 23.5078L61.4033 23.5078Z" fill="#F6B419" fill-opacity="1.000000" fill-rule="nonzero"/>
	<path id="Vector" d="M64.1299 23.5078L63.3525 23.5078L63.3525 22.7656L65.8096 22.7656L65.8096 23.5078L65.0361 23.5078L65.0361 26.7119L64.1318 26.7119L64.1318 23.5078L64.1299 23.5078Z" fill="#F6B419" fill-opacity="1.000000" fill-rule="nonzero"/>
	<path id="Vector" d="M68.4111 25.0381L67.2158 25.0381L67.2158 25.9775L68.5693 25.9775L68.4639 26.71L66.3291 26.71L66.3291 22.7656L68.4678 22.7656L68.4678 23.5078L67.2178 23.5078L67.2178 24.3018L68.4131 24.3018L68.4131 25.0381L68.4111 25.0381Z" fill="#F6B419" fill-opacity="1.000000" fill-rule="nonzero"/>
	<path id="Vector" d="M70.0264 25.0967L70.0264 26.7119L69.1318 26.7119L69.1318 22.7676L70.4648 22.7676C71.2256 22.7676 71.6133 23.1445 71.6133 23.8594C71.6133 24.4053 71.3457 24.6602 71.1064 24.7559C71.4141 24.8936 71.5605 25.1475 71.5605 25.7158L71.5605 25.8535C71.5605 26.292 71.5771 26.541 71.6035 26.7139L70.7246 26.7139C70.6777 26.5615 70.6641 26.2109 70.6641 25.8252L70.6641 25.6895C70.6641 25.2227 70.5703 25.0986 70.2236 25.0986L70.0264 25.0986L70.0264 25.0967ZM70.0283 24.417L70.2393 24.417C70.5781 24.417 70.708 24.2949 70.708 23.9102C70.708 23.585 70.5947 23.4434 70.2969 23.4434L70.0283 23.4434L70.0283 24.417Z" fill="#F6B419" fill-opacity="1.000000" fill-rule="nonzero"/>
	<path id="Vector" d="M73.1572 22.7656L73.1572 26.71L72.25 26.71L72.25 22.7656L73.1572 22.7656Z" fill="#F6B419" fill-opacity="1.000000" fill-rule="nonzero"/>
	<path id="Vector" d="M76.0225 25.0381L74.8271 25.0381L74.8271 25.9775L76.1787 25.9775L76.0732 26.71L73.9385 26.71L73.9385 22.7656L76.0771 22.7656L76.0771 23.5078L74.8271 23.5078L74.8271 24.3018L76.0225 24.3018L76.0225 25.0381Z" fill="#F6B419" fill-opacity="1.000000" fill-rule="nonzero"/>
	<path id="Vector" d="M77.458 25.5693C77.4805 25.8936 77.5742 26.1172 77.8438 26.1172C78.1074 26.1172 78.1904 25.9404 78.1904 25.7158C78.1904 25.4414 78.0527 25.2812 77.5898 25.0439C76.9043 24.6904 76.6465 24.3926 76.6465 23.8125C76.6465 23.1367 77.0586 22.6943 77.8398 22.6943C78.7588 22.6943 79.0225 23.2686 79.0283 23.875L78.1562 23.875C78.1426 23.6016 78.0918 23.3643 77.834 23.3643C77.6328 23.3643 77.542 23.4941 77.542 23.7148C77.542 23.9404 77.6289 24.0576 78.0586 24.2705C78.7891 24.6396 79.0996 24.9502 79.0996 25.6143C79.0996 26.2656 78.7188 26.7852 77.834 26.7852C76.874 26.7852 76.582 26.2393 76.5615 25.5674L77.458 25.5674L77.458 25.5693Z" fill="#F6B419" fill-opacity="1.000000" fill-rule="nonzero"/>
	<path id="Vector" d="M0 5.4375L14.2842 5.4375L14.2842 8.68359L4.86914 8.68359L4.86914 9.73926L12.8877 9.73926L12.8877 12.1738L4.86914 12.1738L4.86914 13.2285L14.2842 13.2285L14.2842 16.4756L0 16.4756L0 5.4375Z" fill="#F6B419" fill-opacity="1.000000" fill-rule="nonzero"/>
	<path id="Vector" d="M30.7881 5.4375L45.0723 5.4375L45.0723 8.68359L35.6572 8.68359L35.6572 9.73926L43.6758 9.73926L43.6758 12.1738L35.6572 12.1738L35.6572 13.2285L45.0723 13.2285L45.0723 16.4756L30.7881 16.4756L30.7881 5.4375Z" fill="#F6B419" fill-opacity="1.000000" fill-rule="nonzero"/>
	<path id="Vector" d="M63.2354 10.21L63.2354 10.291L57.96 10.291L57.9111 10.0635C57.7168 9.15527 56.8564 8.52148 54.6973 8.52148L54.0811 8.52148C51.8086 8.52148 50.5264 9.1875 50.5264 10.8916L50.5264 11.0215C50.5264 12.7256 51.8086 13.3916 54.0811 13.3916L54.6973 13.3916C56.8564 13.3916 57.7168 12.7578 57.9111 11.8496L57.96 11.6221L63.2354 11.6221L63.2354 11.7031C63.2354 15.0303 60.2002 16.6377 54.6484 16.6377L54.1299 16.6377C48.416 16.6377 45.4941 15.0469 45.4941 11.0859L45.4941 10.8271C45.4941 6.86621 48.416 5.27539 54.1299 5.27539L54.6484 5.27539C60.2002 5.27539 63.2354 6.88281 63.2354 10.21Z" fill="#F6B419" fill-opacity="1.000000" fill-rule="nonzero"/>
	<path id="Vector" d="M79.9707 5.4375L79.9707 9.00879L74.1924 9.00879L74.1924 16.4756L69.3223 16.4756L69.3223 9.00879L63.5439 9.00879L63.5439 5.4375L79.9707 5.4375Z" fill="#F6B419" fill-opacity="1.000000" fill-rule="nonzero"/>
	<path id="Vector" d="M86.1807 16.4756L81.3115 16.4756L81.3115 5.4375L91.7002 5.4375C95.9199 5.4375 97.2842 6.63867 97.2842 8.8623L97.2842 9.05762C97.2842 10.4697 96.5859 11.4434 95.1738 11.8486C96.5205 12.1416 96.8945 12.8877 97.0244 14.0566L97.2998 16.4756L92.1543 16.4756L91.9756 14.7217C91.8945 13.8945 91.5537 13.4727 90.418 13.4727L86.1807 13.4727L86.1807 16.4756ZM92.333 9.51172C92.333 8.91113 91.8623 8.68359 90.6445 8.68359L86.1807 8.68359L86.1807 10.3887L90.6445 10.3887C91.8623 10.3887 92.333 10.1611 92.333 9.56055L92.333 9.51172Z" fill="#F6B419" fill-opacity="1.000000" fill-rule="nonzero"/>
	<path id="Vector" d="M110.023 14.6406L103.937 14.6406L102.963 16.4756L97.9961 16.4756L104.311 5.4375L109.91 5.4375L116.225 16.4756L110.998 16.4756L110.023 14.6406ZM105.495 11.7188L108.481 11.7188L106.988 8.89453L105.495 11.7188Z" fill="#F6B419" fill-opacity="1.000000" fill-rule="nonzero"/>
	<path id="Vector" d="M125.383 9.1875L123.144 16.4756L117.332 16.4756L113.647 5.4375L118.565 5.4375L120.611 12.6611L122.835 5.4375L128.272 5.4375L130.496 12.6611L132.541 5.4375L137.103 5.4375L133.418 16.4756L127.606 16.4756L125.383 9.1875Z" fill="#F6B419" fill-opacity="1.000000" fill-rule="nonzero"/>
</svg>
