<svg width="25.714355" height="25.713867" viewBox="0 0 25.7144 25.7139" fill="none" xmlns="http://www.w3.org/2000/svg" xmlns:xlink="http://www.w3.org/1999/xlink">
	<desc>
			Created with Pixso.
	</desc>
	<defs/>
	<path id="Vector" d="M21.9678 3.7373C19.5503 1.32812 16.3359 0.000976562 12.9111 0C5.85352 0 0.110352 5.71582 0.107422 12.7412C0.106445 14.9873 0.695801 17.1787 1.81641 19.1113L0 25.7139L6.78711 23.9424C8.65771 24.958 10.7632 25.4932 12.9058 25.4932L12.9111 25.4932C19.9673 25.4932 25.7114 19.7773 25.7144 12.751C25.7158 9.34668 24.3853 6.14551 21.9678 3.7373ZM12.9111 23.3418L12.9067 23.3418C10.9971 23.3408 9.12451 22.8301 7.49023 21.8652L7.10156 21.6357L3.07422 22.6875L4.14893 18.7793L3.896 18.3779C2.83057 16.6924 2.26807 14.7432 2.26904 12.7422C2.27148 6.90234 7.04541 2.15234 12.915 2.15234C15.7578 2.15332 18.4297 3.25586 20.4385 5.25781C22.4478 7.25977 23.5537 9.9209 23.5527 12.751C23.5503 18.5898 18.7764 23.3418 12.9111 23.3418ZM18.748 15.4092C18.4282 15.25 16.8555 14.4805 16.562 14.374C16.269 14.2676 16.0557 14.2148 15.8423 14.5332C15.6289 14.8516 15.0161 15.5693 14.8296 15.7812C14.6426 15.9941 14.4561 16.0205 14.1362 15.8613C13.8164 15.7021 12.7856 15.3652 11.5635 14.2803C10.6128 13.4365 9.9707 12.3936 9.78369 12.0752C9.59766 11.7559 9.78223 11.6006 9.92432 11.4258C10.2705 10.9971 10.6172 10.5488 10.7241 10.3359C10.8306 10.124 10.7773 9.9375 10.6973 9.77832C10.6172 9.61914 9.97754 8.05176 9.71094 7.41406C9.45117 6.79395 9.1875 6.87793 8.99121 6.86816C8.80469 6.8584 8.59131 6.85645 8.37793 6.85645C8.16455 6.85645 7.81787 6.93652 7.5249 7.25586C7.23145 7.57422 6.40527 8.34473 6.40527 9.91113C6.40527 11.4785 7.55176 12.9922 7.71143 13.2051C7.87158 13.417 9.96729 16.6338 13.1763 18.0127C13.9399 18.3408 14.5356 18.5361 15.0005 18.6826C15.7666 18.9258 16.4639 18.8916 17.0151 18.8096C17.6299 18.7178 18.9077 18.0391 19.1748 17.2949C19.4414 16.5518 19.4414 15.9141 19.3613 15.7812C19.2812 15.6484 19.0679 15.5693 18.748 15.4092Z" fill="#FFFFFF" fill-opacity="1.000000" fill-rule="evenodd"/>
</svg>
