<svg width="27.176270" height="28.308594" viewBox="0 0 27.1763 28.3086" fill="none" xmlns="http://www.w3.org/2000/svg" xmlns:xlink="http://www.w3.org/1999/xlink">
	<desc>
			Created with Pixso.
	</desc>
	<defs/>
	<path id="Vector" d="M26.8989 16.3887C27.7832 9.28516 26.4741 4.80176 24.1118 2.77344L24.1133 2.77246C20.3013 -0.691406 7.42676 -1.2041 2.86621 2.92773C0.817871 4.94922 0.0966797 7.91504 0.0175781 11.5869C-0.0615234 15.2607 -0.155273 22.1416 6.56592 24.0088L6.57227 24.0088L6.56592 26.8594C6.56592 26.8594 6.52002 28.0146 7.29346 28.2461C8.12646 28.5039 8.52979 28.043 10.8716 25.3711C11.0166 25.2051 11.1689 25.0312 11.3291 24.8486C15.9292 25.2295 19.4624 24.3574 19.8638 24.2305C20.793 23.9336 26.0488 23.2695 26.8989 16.3887ZM11.7827 22.8428C11.7827 22.8428 8.87109 26.3066 7.96533 27.2061C7.66895 27.498 7.34424 27.4707 7.34912 26.8916C7.34912 26.5107 7.37109 22.1582 7.37109 22.1582C1.86865 20.6543 1.99268 15.1387 2.06348 12.001C2.06592 11.8896 2.06836 11.7812 2.0708 11.6758C2.13232 8.60938 2.72021 6.09766 4.45459 4.40625C8.45605 0.827148 19.7427 1.62793 22.6187 4.20605C25.8184 6.91309 25.0693 14.1152 24.9146 15.6025C24.8989 15.75 24.8896 15.8408 24.8901 15.8662C24.1675 21.6104 19.9082 21.9746 19.125 22.2227C18.7905 22.3291 15.6836 23.0918 11.7827 22.8428ZM13.3936 5.0791C12.918 5.0791 12.918 5.78613 13.3936 5.79297C17.0835 5.81934 20.1221 8.27344 20.1558 12.7734C20.1558 13.249 20.8843 13.2432 20.8784 12.7676L20.877 12.7676C20.8374 7.91895 17.5195 5.10645 13.3936 5.0791ZM17.4688 15.0693C16.8584 14.7324 16.2373 14.9424 15.98 15.2734L15.4429 15.9375C15.1699 16.2744 14.6597 16.2295 14.6597 16.2295C10.9365 15.29 9.94092 11.5732 9.94092 11.5732C9.94092 11.5732 9.89502 11.0703 10.2358 10.7998L10.9082 10.2695C11.2441 10.0146 11.4565 9.40234 11.1143 8.7998C10.2002 7.22461 9.58643 6.68066 9.27393 6.26367C8.94531 5.87109 8.45117 5.7832 7.93701 6.04785L7.92578 6.04785C6.85742 6.64453 5.6875 7.76074 6.06201 8.91016C6.70068 10.1211 7.87402 13.9834 11.6147 16.9014C13.3726 18.2812 16.1543 19.6953 17.3354 20.0215L17.3462 20.0381C18.5103 20.4082 19.6416 19.249 20.2456 18.1982L20.2456 18.1904C20.5137 17.6826 20.4248 17.2012 20.0332 16.8867C19.3389 16.2412 18.2915 15.5283 17.4688 15.0693ZM18.9692 12.0439C18.9634 12.5195 18.2358 12.4971 18.2466 12.0283C18.3037 9.68652 16.8198 7.85254 14.0034 7.64844C13.5293 7.61523 13.5786 6.90234 14.0542 6.93555C17.3018 7.16797 19.0298 9.37012 18.9692 12.0439ZM16.3877 11.4385C16.3262 10.2236 15.7505 9.63184 14.5635 9.56641C14.083 9.53906 14.1274 8.82617 14.603 8.85352C16.1646 8.93555 17.0317 9.81934 17.1104 11.4053C17.1328 11.8809 16.4102 11.9141 16.3877 11.4385Z" fill="#F6B419" fill-opacity="1.000000" fill-rule="evenodd"/>
</svg>
