<svg width="27.175781" height="28.308594" viewBox="0 0 27.1758 28.3086" fill="none" xmlns="http://www.w3.org/2000/svg" xmlns:xlink="http://www.w3.org/1999/xlink">
	<desc>
			Created with Pixso.
	</desc>
	<defs/>
	<path id="Vector" d="M26.8984 16.3887C27.7832 9.28516 26.4736 4.80176 24.1123 2.77344L24.1133 2.77246C20.3008 -0.691406 7.42676 -1.2041 2.86621 2.92773C0.818359 4.94922 0.0966797 7.91504 0.0175781 11.5869C-0.0615234 15.2607 -0.155273 22.1416 6.56543 24.0088L6.57227 24.0088L6.56543 26.8594C6.56543 26.8594 6.52051 28.0146 7.29297 28.2461C8.12598 28.5039 8.53027 28.043 10.8711 25.3711C11.0166 25.2051 11.1689 25.0312 11.3291 24.8486C15.9297 25.2295 19.4619 24.3574 19.8643 24.2305C20.793 23.9336 26.0488 23.2695 26.8984 16.3887ZM11.7822 22.8428C11.7822 22.8428 8.87109 26.3066 7.96582 27.2061C7.66895 27.498 7.34375 27.4707 7.34863 26.8916C7.34863 26.5107 7.37109 22.1582 7.37109 22.1582C1.86914 20.6543 1.99316 15.1387 2.06348 12.001C2.06641 11.8896 2.06836 11.7812 2.07031 11.6758C2.13281 8.60938 2.7207 6.09766 4.45508 4.40625C8.45605 0.827148 19.7432 1.62793 22.6182 4.20605C25.8184 6.91309 25.0693 14.1152 24.9141 15.6025C24.8994 15.75 24.8896 15.8408 24.8906 15.8662C24.168 21.6104 19.9082 21.9746 19.125 22.2227C18.79 22.3291 15.6836 23.0918 11.7822 22.8428ZM13.3936 5.0791C12.918 5.0791 12.918 5.78613 13.3936 5.79297C17.083 5.81934 20.1221 8.27344 20.1553 12.7734C20.1553 13.249 20.8848 13.2432 20.8779 12.7676L20.877 12.7676C20.8379 7.91895 17.5195 5.10645 13.3936 5.0791ZM17.4688 15.0693C16.8584 14.7324 16.2373 14.9424 15.9805 15.2734L15.4424 15.9375C15.1699 16.2744 14.6592 16.2295 14.6592 16.2295C10.9365 15.29 9.94043 11.5732 9.94043 11.5732C9.94043 11.5732 9.89551 11.0703 10.2363 10.7998L10.9082 10.2695C11.2441 10.0146 11.4561 9.40234 11.1143 8.7998C10.2002 7.22461 9.58594 6.68066 9.27344 6.26367C8.94531 5.87109 8.45117 5.7832 7.9375 6.04785L7.92578 6.04785C6.85742 6.64453 5.6875 7.76074 6.06152 8.91016C6.7002 10.1211 11.6143 16.9014 11.6143 16.9014C11.6143 16.9014 16.1543 19.6953 17.335 20.0215L17.3467 20.0381C18.5098 20.4082 19.6416 19.249 20.2461 18.1982L20.2461 18.1904C20.5137 17.6826 20.4248 17.2012 20.0332 16.8867C19.3389 16.2412 18.291 15.5283 17.4688 15.0693ZM18.9697 12.0439C18.9629 12.5195 18.2354 12.4971 18.2471 12.0283C18.3037 9.68652 16.8203 7.85254 14.0039 7.64844C13.5293 7.61523 13.5781 6.90234 14.0537 6.93555C17.3018 7.16797 19.0303 9.37012 18.9697 12.0439ZM16.3877 11.4385C16.3262 10.2236 15.751 9.63184 14.5635 9.56641C14.083 9.53906 14.127 8.82617 14.6025 8.85352C16.1641 8.93555 17.0312 9.81934 17.1104 11.4053C17.1328 11.8809 16.4102 11.9141 16.3877 11.4385Z" fill="#281D17" fill-opacity="1.000000" fill-rule="evenodd"/>
</svg>
