<svg width="30" height="30" viewBox="0 0 30 30" fill="none" xmlns="http://www.w3.org/2000/svg">
<path fill-rule="evenodd" clip-rule="evenodd" d="M23.6338 5.38536C21.2165 2.97684 18.0017 1.64985 14.5769 1.64844C7.51976 1.64844 1.77625 7.36431 1.77341 14.3896C1.77246 16.6354 2.36196 18.8276 3.48243 20.7599L1.66602 27.3627L8.45336 25.5908C10.3235 26.6061 12.429 27.1411 14.5717 27.1417H14.5771C21.6335 27.1417 27.3776 21.4254 27.3803 14.3998C27.3817 10.995 26.0512 7.79372 23.6338 5.38536ZM14.5769 24.9898H14.5725C12.6631 24.989 10.7903 24.4783 9.15624 23.5136L8.76782 23.284L4.7401 24.3355L5.81516 20.4274L5.56205 20.0267C4.49677 18.3404 3.93425 16.3915 3.93519 14.3904C3.9374 8.55115 8.71136 3.8005 14.5812 3.8005C17.4236 3.80144 20.0956 4.90447 22.1047 6.90634C24.1138 8.9082 25.2196 11.5691 25.2187 14.399C25.2161 20.2387 20.4425 24.9898 14.5769 24.9898ZM20.4141 17.0579C20.0943 16.8984 18.5214 16.1284 18.2281 16.022C17.935 15.9158 17.7215 15.8629 17.5085 16.1815C17.2951 16.5001 16.6821 17.2173 16.4954 17.4297C16.3087 17.6422 16.1223 17.6689 15.8023 17.5094C15.4823 17.3501 14.4516 17.0138 13.2295 15.9291C12.2786 15.0849 11.6366 14.0423 11.4499 13.7237C11.2635 13.4048 11.4483 13.2491 11.5902 13.0739C11.9365 12.6459 12.2833 12.1972 12.3899 11.9848C12.4967 11.7723 12.4432 11.5864 12.3631 11.4271C12.2833 11.2678 11.6435 9.70063 11.377 9.06295C11.1171 8.44238 10.8536 8.52619 10.6571 8.51646C10.4707 8.5072 10.2573 8.50532 10.0439 8.50532C9.83073 8.50532 9.4841 8.58489 9.19077 8.90381C8.8976 9.22257 8.07124 9.99271 8.07124 11.5598C8.07124 13.127 9.21758 14.6409 9.37749 14.8534C9.5374 15.0659 11.6334 18.2817 14.8425 19.6607C15.6058 19.989 16.2016 20.1847 16.6663 20.3315C17.4328 20.5738 18.13 20.5396 18.6813 20.4577C19.296 20.3662 20.5739 19.6874 20.8407 18.9437C21.1072 18.2 21.1072 17.5626 21.0271 17.4297C20.9473 17.2969 20.7339 17.2173 20.4141 17.0579Z" fill="white"/>
</svg>
